<?xml version="1.0" standalone="no"?>
<!DOCTYPE svg PUBLIC "-//W3C//DTD SVG 20010904//EN"
 "http://www.w3.org/TR/2001/REC-SVG-20010904/DTD/svg10.dtd">
<svg version="1.0" xmlns="http://www.w3.org/2000/svg"
 width="512.000000pt" height="512.000000pt" viewBox="0 0 512.000000 512.000000"
 preserveAspectRatio="xMidYMid meet">
<metadata>
Created by potrace 1.16, written by Peter Selinger 2001-2019
</metadata>
<g transform="translate(0.000000,512.000000) scale(0.100000,-0.100000)"
fill="#000000" stroke="none">
<path d="M847 5099 c-105 -55 -147 -230 -88 -364 44 -100 173 -138 294 -88 35
15 37 19 37 60 0 48 -14 54 -60 28 -34 -19 -100 -19 -129 1 -32 23 -51 74 -51
138 0 67 11 99 46 131 34 32 96 34 139 5 46 -30 55 -26 55 25 0 40 -4 47 -32
65 -46 28 -158 27 -211 -1z"/>
<path d="M1155 5108 c-3 -7 -4 -117 -3 -243 l3 -230 50 0 50 0 3 103 3 102 84
0 84 0 3 -102 3 -103 45 0 45 0 0 240 0 240 -45 0 -45 0 -3 -92 -3 -93 -84 0
-84 0 -3 93 -3 92 -48 3 c-32 2 -49 -1 -52 -10z"/>
<path d="M1743 5108 c-20 -26 -161 -455 -154 -467 5 -8 25 -11 51 -9 42 3 44
4 60 53 l17 50 85 3 85 3 19 -53 19 -53 53 -3 c45 -3 52 0 52 15 0 27 -151
457 -164 465 -18 13 -113 9 -123 -4z"/>
<path d="M2097 5107 c-16 -11 -17 -35 -15 -242 l3 -230 45 0 45 0 3 165 3 165
75 -145 c92 -176 104 -190 158 -190 23 0 47 4 54 8 9 7 12 62 10 243 l-3 234
-40 0 -40 0 -3 -160 -3 -160 -75 145 c-41 80 -84 153 -96 163 -24 20 -96 23
-121 4z"/>
<path d="M2690 5104 c-46 -20 -87 -59 -113 -109 -30 -57 -30 -193 0 -250 44
-84 108 -118 223 -118 85 0 146 16 160 43 11 20 14 198 4 224 -5 13 -24 16
-105 16 l-99 0 0 -40 0 -40 50 0 50 0 0 -49 c0 -56 -7 -64 -59 -64 -55 0 -100
28 -122 76 -35 77 -20 160 39 209 54 45 109 44 224 -6 13 -6 19 -2 24 18 11
46 -3 72 -46 90 -52 21 -182 21 -230 0z"/>
<path d="M3073 5113 c-10 -3 -13 -61 -13 -238 0 -203 2 -234 16 -239 9 -3 71
-6 139 -6 116 0 124 1 130 21 4 11 4 31 1 45 -6 23 -9 24 -96 24 l-90 0 0 60
0 59 78 3 77 3 0 40 0 40 -77 3 -78 3 0 49 0 50 90 0 90 0 0 45 0 45 -127 -1
c-71 0 -134 -3 -140 -6z"/>
<path d="M3544 5096 c-3 -14 -3 -34 1 -45 6 -18 14 -21 70 -21 l65 0 2 -197 3
-198 45 0 45 0 3 197 2 197 68 3 c72 3 81 11 68 64 l-6 24 -180 0 -180 0 -6
-24z"/>
<path d="M4045 5106 c-85 -37 -131 -135 -123 -262 10 -152 75 -217 217 -218
169 -1 252 98 239 285 -11 148 -76 209 -222 209 -45 -1 -94 -7 -111 -14z m150
-80 c53 -22 69 -57 70 -145 0 -54 -5 -85 -18 -109 -34 -63 -129 -78 -177 -27
-55 58 -51 207 7 261 21 20 35 25 76 33 4 0 23 -5 42 -13z"/>
<path d="M428 4473 c-22 -3 -28 -10 -28 -29 0 -35 238 -736 253 -746 20 -13
172 -9 189 5 19 14 259 732 252 752 -11 28 -130 29 -152 1 -5 -6 -49 -139 -97
-296 -48 -157 -89 -286 -90 -287 -1 -2 -43 129 -94 290 -51 160 -95 295 -99
299 -10 9 -101 17 -134 11z"/>
<path d="M1230 4473 c-51 -10 -50 -1 -50 -394 0 -419 -7 -389 89 -389 88 0 81
-35 81 390 0 209 -3 381 -7 383 -14 8 -88 15 -113 10z"/>
<path d="M2815 4472 l-30 -7 0 -291 0 -290 30 -60 c54 -104 157 -151 315 -142
95 6 167 36 219 93 66 71 72 108 69 420 l-3 269 -37 8 c-21 4 -55 4 -75 0
l-38 -8 -5 -264 c-5 -242 -7 -268 -26 -304 -54 -104 -209 -101 -261 4 -22 42
-23 55 -23 302 0 141 -3 259 -7 261 -16 10 -99 15 -128 9z"/>
<path d="M3768 4473 c-14 -2 -31 -10 -36 -16 -20 -24 -253 -712 -250 -737 3
-23 7 -25 67 -28 37 -2 69 2 75 8 6 6 23 46 37 88 l26 77 139 3 140 3 27 -86
c32 -96 35 -98 132 -93 54 3 60 5 63 26 4 24 -233 719 -252 739 -12 13 -124
24 -168 16z m152 -465 c0 -5 -43 -8 -95 -8 -52 0 -95 3 -95 7 0 4 21 72 47
150 l48 144 47 -143 c27 -78 48 -146 48 -150z"/>
<path d="M4315 4472 l-30 -7 -3 -372 c-2 -328 0 -373 14 -387 13 -13 45 -16
202 -16 103 0 193 4 200 9 9 5 12 26 10 67 l-3 59 -127 3 -128 3 0 314 c0 172
-3 316 -7 318 -16 10 -99 15 -128 9z"/>
<path d="M1523 4459 c-10 -10 -13 -101 -13 -385 0 -418 -7 -384 80 -384 84 0
80 -7 80 167 l0 156 45 -6 c71 -8 97 -41 166 -214 17 -43 35 -84 41 -90 11
-13 123 -18 152 -7 24 9 20 25 -36 162 -36 85 -65 139 -89 164 -20 21 -31 38
-25 38 23 0 89 65 107 104 34 75 19 177 -34 234 -12 13 -40 34 -62 45 -36 20
-58 22 -220 25 -136 3 -183 0 -192 -9z m307 -134 c39 -20 58 -80 39 -120 -22
-46 -58 -65 -132 -72 l-67 -6 0 107 0 106 65 0 c39 0 78 -6 95 -15z"/>
<path d="M2114 4458 c-13 -21 -7 -110 7 -119 8 -5 56 -9 107 -9 l92 0 0 -314
c0 -277 2 -315 16 -320 28 -11 130 -6 142 6 9 9 12 94 12 320 l0 308 94 0
c111 0 118 5 114 82 l-3 53 -287 3 c-218 2 -288 -1 -294 -10z"/>
<path d="M725 3597 c-21 -12 -54 -42 -72 -65 l-33 -44 0 -1349 c0 -1482 -5
-1372 62 -1436 68 -65 37 -63 798 -63 l690 0 0 -125 0 -125 -113 0 c-96 0
-116 -3 -130 -18 -9 -9 -33 -84 -54 -166 -34 -136 -36 -150 -22 -174 l15 -27
692 -3 691 -2 17 26 c17 25 16 32 -20 179 -23 93 -45 160 -55 169 -14 13 -42
16 -129 16 l-112 0 0 125 0 125 690 0 c599 0 696 2 727 15 45 19 67 38 104 89
l29 39 0 1349 c0 1247 -1 1351 -17 1376 -28 46 -56 73 -95 93 -36 18 -87 19
-1830 19 l-1793 0 -40 -23z m3584 -118 c17 -6 36 -19 41 -29 6 -12 10 -491 10
-1323 l0 -1304 -21 -19 c-21 -19 -64 -19 -1780 -19 l-1758 0 -23 23 -23 23 -3
1287 c-2 1211 -1 1289 15 1322 11 20 28 37 43 41 45 12 3463 10 3499 -2z
m-1949 -2859 c0 -51 67 -138 123 -159 42 -16 124 -13 163 5 47 23 92 77 106
130 10 36 16 44 35 44 23 0 23 -1 23 -125 l0 -125 -250 0 -250 0 0 125 0 125
25 0 c18 0 25 -5 25 -20z m734 -400 c3 -16 9 -43 12 -60 l6 -30 -551 0 c-492
0 -551 2 -551 16 0 8 5 35 11 60 l11 44 528 0 528 0 6 -30z"/>
<path d="M895 3345 l-25 -24 0 -1189 0 -1189 23 -21 23 -22 1643 0 1642 0 24
25 25 24 0 1186 0 1186 -25 24 -24 25 -1641 0 -1641 0 -24 -25z m3215 -1210
l0 -1095 -698 0 -698 0 10 60 10 60 638 0 c625 0 638 0 658 20 18 18 20 33 20
179 l0 159 -30 25 -30 26 0 685 0 685 -26 20 -27 21 -1380 0 -1381 0 -23 -22
-23 -21 0 -689 c0 -378 -4 -688 -8 -688 -5 0 -18 -9 -30 -20 -21 -20 -22 -29
-22 -185 0 -196 -1 -195 117 -195 l73 0 0 -60 0 -60 -125 0 -125 0 0 1095 0
1095 1550 0 1550 0 0 -1095z m-260 65 l0 -640 -480 0 c-300 0 -480 4 -480 10
0 20 -45 50 -75 50 l-32 0 53 183 c29 100 53 191 54 202 0 38 -28 65 -69 65
-59 0 -62 -6 -121 -215 -12 -44 -31 -107 -41 -139 -11 -33 -19 -68 -19 -78 0
-15 -9 -18 -55 -18 -42 0 -60 -5 -75 -20 -11 -11 -20 -24 -20 -30 0 -6 -28
-10 -63 -10 -54 0 -67 4 -86 24 -12 13 -39 31 -60 40 l-37 17 22 48 c13 26 28
67 33 92 14 58 14 391 0 449 -28 123 -124 249 -235 306 -82 44 -150 58 -250
51 -142 -8 -270 -83 -350 -204 -61 -93 -74 -157 -74 -376 0 -189 11 -272 44
-336 13 -23 10 -26 -52 -67 -35 -24 -75 -44 -88 -44 l-24 0 0 640 0 640 1290
0 1290 0 0 -640z m-1863 214 c66 -32 132 -105 158 -175 17 -47 20 -79 20 -234
0 -153 -3 -188 -19 -232 -26 -69 -56 -106 -79 -98 -27 11 -22 78 11 133 25 43
27 57 31 170 l3 124 -84 84 c-57 56 -92 84 -107 84 -25 0 -294 -132 -324 -158
-17 -15 -19 -30 -15 -133 3 -110 5 -118 36 -168 39 -64 44 -126 11 -136 -11
-4 -22 -5 -23 -3 -62 85 -76 144 -76 323 0 168 12 238 54 307 80 133 259 183
403 112z m-53 -340 c33 -33 36 -40 36 -96 0 -104 -44 -158 -130 -158 -72 0
-120 67 -120 166 0 32 4 36 88 78 48 25 88 45 89 45 0 1 17 -15 37 -35z m-208
-559 c84 -57 192 -53 264 11 13 11 32 10 118 -5 110 -20 144 -36 166 -80 l15
-28 -106 -27 c-59 -15 -115 -34 -125 -43 -16 -14 -18 -34 -18 -160 l0 -143
-190 0 -190 0 0 140 c0 123 -2 142 -18 158 -16 16 -97 42 -204 66 -36 8 -35
18 5 62 30 33 41 37 132 54 55 9 103 18 107 19 4 0 24 -10 44 -24z m1024 -73
c0 -36 -3 -40 -50 -62 -27 -13 -57 -31 -66 -41 -9 -10 -27 -78 -42 -158 l-26
-141 -53 0 c-48 0 -52 2 -44 18 6 9 40 108 76 220 l67 202 69 0 69 0 0 -38z
m1160 -82 l0 -60 -526 0 c-478 0 -524 1 -510 16 10 9 16 33 16 60 l0 44 510 0
510 0 0 -60z m-1585 -287 c-10 -33 -10 -33 -77 -33 l-68 0 0 99 0 100 63 14
62 14 15 -81 c11 -59 13 -90 5 -113z m-849 176 l44 -11 0 -99 0 -99 -60 0 -60
0 0 110 c0 123 -3 119 76 99z"/>
<path d="M3097 2706 c-10 -8 -36 -68 -58 -135 l-41 -122 -28 60 c-29 61 -52
81 -92 81 -30 0 -68 -34 -68 -61 0 -32 139 -307 163 -324 29 -20 59 -19 84 4
12 12 44 89 79 195 l58 176 246 0 c245 0 247 0 268 23 28 30 28 71 0 97 -21
19 -34 20 -307 20 -225 -1 -290 -4 -304 -14z"/>
<path d="M3289 2511 c-37 -30 -32 -84 11 -120 l35 -28 -39 -43 c-42 -47 -43
-80 -4 -112 31 -27 64 -22 106 17 l39 34 33 -34 c39 -40 66 -44 104 -14 36 28
34 69 -5 114 l-31 35 31 35 c39 45 41 86 5 114 -38 30 -65 26 -104 -14 l-33
-34 -39 34 c-43 39 -75 44 -109 16z"/>
<path d="M3027 2052 c-24 -26 -21 -77 5 -102 31 -28 115 -28 152 1 32 25 36
77 8 102 -27 25 -143 24 -165 -1z"/>
<path d="M3285 2056 c-28 -20 -26 -83 4 -107 21 -17 42 -19 208 -19 182 0 184
0 208 25 29 28 32 61 9 93 -15 21 -20 22 -213 22 -152 0 -202 -3 -216 -14z"/>
<path d="M3045 1808 c-28 -16 -35 -28 -35 -64 0 -60 14 -64 233 -64 191 0 196
1 211 22 23 32 20 65 -9 93 -24 25 -26 25 -202 25 -114 0 -185 -5 -198 -12z"/>
</g>
</svg>
